M48
;DRILL file {KiCad 4.0.1-stable} date 2016/11/10 21:26:42
;FORMAT={3:3/ absolute / metric / suppress trailing zeros}
FMAT,2
METRIC,LZ
T1C2.200
T2C3.200
%
G90
G05
M71
T1
X32858Y-12617
X38158Y-07317
X38158Y-18017
X40727Y-3224
X40727Y-3224
X43327Y-3224
X43327Y-3224
X43558Y-12617
T2
X15245Y-20505
X15245Y-23805
X18445Y-14555
X18445Y-29755
X23345Y-23055
X25245Y-32155
X27345Y-23055
X32045Y-29755
X32051Y-14548
X32643Y-32273
X35245Y-23798
X35248Y-20501
X36243Y-28273
X36243Y-30673
X38643Y-28273
X38643Y-30673
X38644Y-27673
X38743Y-32723
X39677Y-2939
X39677Y-2939
X43677Y-2939
X43677Y-2939
T0
M30
