G04 #@! TF.FileFunction,Soldermask,Top*
%FSLAX46Y46*%
G04 Gerber Fmt 4.6, Leading zero omitted, Abs format (unit mm)*
G04 Created by KiCad (PCBNEW 4.0.1-stable) date 2016/11/10 21:26:33*
%MOMM*%
G01*
G04 APERTURE LIST*
%ADD10C,0.100000*%
%ADD11C,3.200000*%
%ADD12C,2.200000*%
%ADD13R,2.032000X1.727200*%
%ADD14O,2.032000X1.727200*%
%ADD15R,2.032000X2.032000*%
%ADD16O,2.032000X2.032000*%
%ADD17R,1.727200X1.727200*%
%ADD18O,1.727200X1.727200*%
%ADD19C,1.300000*%
%ADD20R,1.300000X1.300000*%
%ADD21R,2.000000X2.000000*%
%ADD22C,2.000000*%
%ADD23R,2.950000X2.950000*%
%ADD24C,2.950000*%
%ADD25C,1.998980*%
%ADD26C,1.510000*%
%ADD27R,1.510000X1.510000*%
%ADD28C,1.524000*%
%ADD29R,2.999740X1.198880*%
%ADD30R,5.288280X2.999740*%
%ADD31R,3.489960X2.999740*%
%ADD32R,2.999740X5.288280*%
%ADD33R,1.198880X2.999740*%
%ADD34R,1.498600X1.198880*%
%ADD35R,1.727200X2.032000*%
%ADD36O,1.727200X2.032000*%
%ADD37C,4.000000*%
%ADD38R,1.998980X1.998980*%
%ADD39C,1.600000*%
G04 APERTURE END LIST*
D10*
D11*
X396770000Y-293900000D03*
D12*
X433270000Y-322400000D03*
D13*
X404270000Y-299400000D03*
D14*
X404270000Y-301940000D03*
X404270000Y-304480000D03*
X404270000Y-307020000D03*
X404270000Y-309560000D03*
X404270000Y-312100000D03*
X404270000Y-314640000D03*
D15*
X398470000Y-321300000D03*
D16*
X395930000Y-321300000D03*
D17*
X395770000Y-304400000D03*
D18*
X398310000Y-304400000D03*
X395770000Y-306940000D03*
X398310000Y-306940000D03*
X395770000Y-309480000D03*
X398310000Y-309480000D03*
X395770000Y-312020000D03*
X398310000Y-312020000D03*
X395770000Y-314560000D03*
X398310000Y-314560000D03*
D12*
X407270000Y-322400000D03*
D11*
X436770000Y-293900000D03*
X273450000Y-230550000D03*
X233450000Y-230550000D03*
X184450000Y-145550000D03*
X152450000Y-205050000D03*
X152450000Y-238050000D03*
X184450000Y-297550000D03*
X252450000Y-321550000D03*
X320450000Y-297550000D03*
X352450000Y-237980000D03*
X352480000Y-205010000D03*
D13*
X169210000Y-225850000D03*
D14*
X169210000Y-223310000D03*
X169210000Y-220770000D03*
X169210000Y-218230000D03*
D19*
X314500000Y-189000000D03*
D20*
X314500000Y-191500000D03*
X254500000Y-192500000D03*
D19*
X254500000Y-187500000D03*
D20*
X273500000Y-198500000D03*
D19*
X273500000Y-193500000D03*
D20*
X282875000Y-209340000D03*
D19*
X282875000Y-204340000D03*
D20*
X281500000Y-226500000D03*
D19*
X286500000Y-226500000D03*
D20*
X275500000Y-239500000D03*
D19*
X280500000Y-239500000D03*
D20*
X263500000Y-250500000D03*
D19*
X268500000Y-250500000D03*
D20*
X315500000Y-198500000D03*
D19*
X317500000Y-198500000D03*
D20*
X251500000Y-249500000D03*
D19*
X251500000Y-254500000D03*
D20*
X239500000Y-245500000D03*
D19*
X234500000Y-245500000D03*
D20*
X230500000Y-233500000D03*
D19*
X225500000Y-233500000D03*
D20*
X326500000Y-198500000D03*
D19*
X321500000Y-198500000D03*
D20*
X225500000Y-224500000D03*
D19*
X220500000Y-224500000D03*
D20*
X323500000Y-189500000D03*
D19*
X321500000Y-189500000D03*
D20*
X229500000Y-202500000D03*
D19*
X224500000Y-202500000D03*
D20*
X245500000Y-184500000D03*
D19*
X240500000Y-184500000D03*
D21*
X257500000Y-295500000D03*
D22*
X260040000Y-295500000D03*
D23*
X305500000Y-192480000D03*
D24*
X305500000Y-188520000D03*
D17*
X272000000Y-269000000D03*
D18*
X274540000Y-269000000D03*
X272000000Y-271540000D03*
X274540000Y-271540000D03*
X272000000Y-274080000D03*
X274540000Y-274080000D03*
X272000000Y-276620000D03*
X274540000Y-276620000D03*
X272000000Y-279160000D03*
X274540000Y-279160000D03*
D17*
X213025000Y-269030000D03*
D18*
X215565000Y-269030000D03*
X213025000Y-271570000D03*
X215565000Y-271570000D03*
X213025000Y-274110000D03*
X215565000Y-274110000D03*
X213025000Y-276650000D03*
X215565000Y-276650000D03*
D23*
X235520000Y-221500000D03*
D24*
X239480000Y-221500000D03*
D23*
X265520000Y-221500000D03*
D24*
X269480000Y-221500000D03*
D23*
X250520000Y-221500000D03*
D24*
X254480000Y-221500000D03*
D25*
X250500000Y-187000640D03*
X250500000Y-192001900D03*
X269500000Y-193000640D03*
X269500000Y-198001900D03*
X278500000Y-202000640D03*
X278500000Y-207001900D03*
X285999360Y-222500000D03*
X280998100Y-222500000D03*
X281999360Y-235500000D03*
X276998100Y-235500000D03*
X272999360Y-247500000D03*
X267998100Y-247500000D03*
X255500000Y-252999360D03*
X255500000Y-247998100D03*
X237000640Y-249500000D03*
X242001900Y-249500000D03*
X226000640Y-237500000D03*
X231001900Y-237500000D03*
D26*
X318420000Y-222500000D03*
D27*
X323500000Y-222500000D03*
D26*
X320960000Y-219960000D03*
D25*
X221000640Y-228500000D03*
X226001900Y-228500000D03*
X331500000Y-194500000D03*
X321340000Y-194500000D03*
X224000640Y-206500000D03*
X229001900Y-206500000D03*
X241000640Y-188500000D03*
X246001900Y-188500000D03*
X209850000Y-307765000D03*
X209850000Y-297605000D03*
X305735000Y-307765000D03*
X305735000Y-297605000D03*
X287500000Y-316500000D03*
X287500000Y-306340000D03*
X257500000Y-286500000D03*
X267660000Y-286500000D03*
D22*
X266700160Y-295500000D03*
X274299840Y-295500000D03*
X204770000Y-302630000D03*
X204770000Y-307130000D03*
X198270000Y-302630000D03*
X198270000Y-307130000D03*
X316530000Y-296915000D03*
X316530000Y-301415000D03*
X310030000Y-296915000D03*
X310030000Y-301415000D03*
X298500000Y-306000000D03*
X298500000Y-310500000D03*
X292000000Y-306000000D03*
X292000000Y-310500000D03*
D28*
X255040000Y-181500000D03*
X252500000Y-181500000D03*
X249960000Y-181500000D03*
X275699705Y-188770000D03*
X273500000Y-187500000D03*
X271300295Y-186230000D03*
X287770000Y-203699705D03*
X286500000Y-201500000D03*
X285230000Y-199300295D03*
X291500000Y-223040000D03*
X291500000Y-220500000D03*
X291500000Y-217960000D03*
X285230000Y-241699705D03*
X286500000Y-239500000D03*
X287770000Y-237300295D03*
X271300295Y-254770000D03*
X273500000Y-253500000D03*
X275699705Y-252230000D03*
X249960000Y-259500000D03*
X252500000Y-259500000D03*
X255040000Y-259500000D03*
D29*
X315131220Y-209450000D03*
D30*
X316276760Y-203971220D03*
D31*
X321753000Y-203971220D03*
D32*
X326088780Y-205116760D03*
D29*
X326088780Y-209450000D03*
X326088780Y-214029620D03*
D33*
X320610000Y-214928780D03*
X318321460Y-214928780D03*
D29*
X315131220Y-214029620D03*
X315131220Y-211738540D03*
D34*
X326838080Y-211738540D03*
D33*
X322898540Y-214928780D03*
D28*
X229300295Y-252230000D03*
X231500000Y-253500000D03*
X233699705Y-254770000D03*
D35*
X248500000Y-159500000D03*
D36*
X251040000Y-159500000D03*
X253580000Y-159500000D03*
X256120000Y-159500000D03*
D13*
X338500000Y-217500000D03*
D14*
X338500000Y-220040000D03*
X338500000Y-222580000D03*
X338500000Y-225120000D03*
D35*
X257500000Y-304500000D03*
D36*
X254960000Y-304500000D03*
X252420000Y-304500000D03*
X249880000Y-304500000D03*
D28*
X217230000Y-237300295D03*
X218500000Y-239500000D03*
X219770000Y-241699705D03*
X213500000Y-217960000D03*
X213500000Y-220500000D03*
X213500000Y-223040000D03*
X219770000Y-199300295D03*
X218500000Y-201500000D03*
X217230000Y-203699705D03*
X233699705Y-186230000D03*
X231500000Y-187500000D03*
X229300295Y-188770000D03*
X299960000Y-283280000D03*
X320280000Y-250260000D03*
X317740000Y-252800000D03*
X317740000Y-250260000D03*
X315200000Y-252800000D03*
X315200000Y-250260000D03*
X312660000Y-252800000D03*
X312660000Y-250260000D03*
X310120000Y-252800000D03*
X310120000Y-250260000D03*
X307580000Y-252800000D03*
X307580000Y-250260000D03*
X305040000Y-252800000D03*
X305040000Y-250260000D03*
X302500000Y-252800000D03*
X302500000Y-250260000D03*
X299960000Y-252800000D03*
X299960000Y-250260000D03*
X297420000Y-252800000D03*
X297420000Y-250260000D03*
X294880000Y-252800000D03*
X294880000Y-250260000D03*
X292340000Y-252800000D03*
X292340000Y-250260000D03*
X289800000Y-252800000D03*
X289800000Y-250260000D03*
X287260000Y-252800000D03*
X287260000Y-250260000D03*
X284720000Y-252800000D03*
X284720000Y-250260000D03*
X282180000Y-252800000D03*
X282180000Y-250260000D03*
X320280000Y-252800000D03*
X325360000Y-252800000D03*
X325360000Y-250260000D03*
X327900000Y-252800000D03*
X327900000Y-250260000D03*
X330440000Y-252800000D03*
X330440000Y-250260000D03*
X332980000Y-250260000D03*
X332980000Y-252800000D03*
X282180000Y-270580000D03*
X284720000Y-270580000D03*
X282180000Y-275660000D03*
X282180000Y-273120000D03*
X284720000Y-275660000D03*
X284720000Y-273120000D03*
X299960000Y-280740000D03*
X297420000Y-283280000D03*
X297420000Y-280740000D03*
X294880000Y-283280000D03*
X294880000Y-280740000D03*
X292340000Y-283280000D03*
X292340000Y-280740000D03*
X289800000Y-283280000D03*
X289800000Y-280740000D03*
X287260000Y-283280000D03*
X287260000Y-280740000D03*
X284720000Y-283280000D03*
X284720000Y-280740000D03*
X282180000Y-283280000D03*
X282180000Y-280740000D03*
X322820000Y-283280000D03*
X322820000Y-280740000D03*
X320280000Y-283280000D03*
X320280000Y-280740000D03*
X317740000Y-283280000D03*
X317740000Y-280740000D03*
X315200000Y-283280000D03*
X315200000Y-280740000D03*
X312660000Y-283280000D03*
X312660000Y-280740000D03*
X310120000Y-283280000D03*
X310120000Y-280740000D03*
X307580000Y-283280000D03*
X307580000Y-280740000D03*
X305040000Y-283280000D03*
X305040000Y-280740000D03*
X327900000Y-283280000D03*
X327900000Y-280740000D03*
X330440000Y-283280000D03*
X330440000Y-280740000D03*
X332980000Y-283280000D03*
X332980000Y-280740000D03*
X282180000Y-278200000D03*
X284720000Y-278200000D03*
X302500000Y-283280000D03*
X302500000Y-280740000D03*
X202200000Y-176120000D03*
X202200000Y-160880000D03*
X199660000Y-176120000D03*
X197120000Y-176120000D03*
X194580000Y-176120000D03*
X192040000Y-176120000D03*
X189500000Y-176120000D03*
X186960000Y-176120000D03*
X184420000Y-176120000D03*
X181880000Y-176120000D03*
X179340000Y-176120000D03*
X176800000Y-176120000D03*
X174260000Y-176120000D03*
X174260000Y-160880000D03*
X179340000Y-160880000D03*
X176800000Y-160880000D03*
X181880000Y-160880000D03*
X184420000Y-160880000D03*
X186960000Y-160880000D03*
X189500000Y-160880000D03*
X192040000Y-160880000D03*
X194580000Y-160880000D03*
X197120000Y-160880000D03*
X199660000Y-160880000D03*
X206200000Y-280120000D03*
X206200000Y-264880000D03*
X203660000Y-280120000D03*
X201120000Y-280120000D03*
X198580000Y-280120000D03*
X196040000Y-280120000D03*
X193500000Y-280120000D03*
X190960000Y-280120000D03*
X188420000Y-280120000D03*
X185880000Y-280120000D03*
X183340000Y-280120000D03*
X180800000Y-280120000D03*
X178260000Y-280120000D03*
X178260000Y-264880000D03*
X183340000Y-264880000D03*
X180800000Y-264880000D03*
X185880000Y-264880000D03*
X188420000Y-264880000D03*
X190960000Y-264880000D03*
X193500000Y-264880000D03*
X196040000Y-264880000D03*
X198580000Y-264880000D03*
X201120000Y-264880000D03*
X203660000Y-264880000D03*
D35*
X179370000Y-196640000D03*
D36*
X181910000Y-196640000D03*
X184450000Y-196640000D03*
X186990000Y-196640000D03*
X189530000Y-196640000D03*
X192070000Y-196640000D03*
X194610000Y-196640000D03*
X197150000Y-196640000D03*
D37*
X221250000Y-165250000D03*
X225750000Y-165250000D03*
X225750000Y-213750000D03*
X221250000Y-213750000D03*
D28*
X236050000Y-204700000D03*
X236050000Y-202160000D03*
X236050000Y-199620000D03*
X236050000Y-197080000D03*
X236050000Y-194540000D03*
X236050000Y-192000000D03*
X236050000Y-189460000D03*
D37*
X279250000Y-165250000D03*
X283750000Y-165250000D03*
X283750000Y-213750000D03*
X279250000Y-213750000D03*
D28*
X294050000Y-204700000D03*
X294050000Y-202160000D03*
X294050000Y-199620000D03*
X294050000Y-197080000D03*
X294050000Y-194540000D03*
X294050000Y-192000000D03*
X294050000Y-189460000D03*
D37*
X250250000Y-165250000D03*
X254750000Y-165250000D03*
X254750000Y-213750000D03*
X250250000Y-213750000D03*
D28*
X265050000Y-204700000D03*
X265050000Y-202160000D03*
X265050000Y-199620000D03*
X265050000Y-197080000D03*
X265050000Y-194540000D03*
X265050000Y-192000000D03*
X265050000Y-189460000D03*
D11*
X320510000Y-145480000D03*
D12*
X381580000Y-180170000D03*
X435580000Y-126170000D03*
X381580000Y-73170000D03*
D21*
X384580000Y-81170000D03*
D22*
X387120000Y-81170000D03*
D21*
X384580000Y-93170000D03*
D22*
X387120000Y-93170000D03*
D21*
X384580000Y-105170000D03*
D22*
X387120000Y-105170000D03*
D21*
X384580000Y-117170000D03*
D22*
X387120000Y-117170000D03*
D21*
X336580000Y-124170000D03*
D22*
X336580000Y-121630000D03*
D21*
X348580000Y-124170000D03*
D22*
X348580000Y-121630000D03*
D21*
X360580000Y-124170000D03*
D22*
X360580000Y-121630000D03*
D21*
X372580000Y-124170000D03*
D22*
X372580000Y-121630000D03*
D21*
X391580000Y-124170000D03*
D22*
X391580000Y-121630000D03*
D21*
X403580000Y-124170000D03*
D22*
X403580000Y-121630000D03*
D21*
X415580000Y-124170000D03*
D22*
X415580000Y-121630000D03*
D21*
X427580000Y-124170000D03*
D22*
X427580000Y-121630000D03*
D21*
X384580000Y-136170000D03*
D22*
X387120000Y-136170000D03*
D21*
X384580000Y-148170000D03*
D22*
X387120000Y-148170000D03*
D21*
X384580000Y-160170000D03*
D22*
X387120000Y-160170000D03*
D21*
X384580000Y-172170000D03*
D22*
X387120000Y-172170000D03*
D17*
X383580000Y-124170000D03*
D18*
X381040000Y-124170000D03*
X383580000Y-126710000D03*
X381040000Y-126710000D03*
X383580000Y-129250000D03*
X381040000Y-129250000D03*
D28*
X377040000Y-81170000D03*
X379580000Y-81170000D03*
X377040000Y-93170000D03*
X379580000Y-93170000D03*
X377040000Y-105170000D03*
X379580000Y-105170000D03*
X377040000Y-117170000D03*
X379580000Y-117170000D03*
X336580000Y-131710000D03*
X336580000Y-129170000D03*
X348580000Y-131710000D03*
X348580000Y-129170000D03*
X360580000Y-131710000D03*
X360580000Y-129170000D03*
X372580000Y-131710000D03*
X372580000Y-129170000D03*
X391580000Y-131710000D03*
X391580000Y-129170000D03*
X403580000Y-131710000D03*
X403580000Y-129170000D03*
X415580000Y-131710000D03*
X415580000Y-129170000D03*
X427580000Y-131710000D03*
X427580000Y-129170000D03*
X377040000Y-136170000D03*
X379580000Y-136170000D03*
X377040000Y-148170000D03*
X379580000Y-148170000D03*
X377040000Y-160170000D03*
X379580000Y-160170000D03*
X377040000Y-172170000D03*
X379580000Y-172170000D03*
D25*
X377180000Y-99170000D03*
X387340000Y-99170000D03*
X379680000Y-86970000D03*
X387300000Y-86970000D03*
X379580000Y-110670000D03*
X387200000Y-110670000D03*
X354580000Y-131670000D03*
X354580000Y-124050000D03*
X342580000Y-129170000D03*
X342580000Y-121550000D03*
X367080000Y-129170000D03*
X367080000Y-121550000D03*
X421580000Y-131670000D03*
X421580000Y-124050000D03*
X397580000Y-129170000D03*
X397580000Y-121550000D03*
X409580000Y-129170000D03*
X409580000Y-121550000D03*
X377080000Y-154270000D03*
X384700000Y-154270000D03*
X379680000Y-141870000D03*
X387300000Y-141870000D03*
X379580000Y-165670000D03*
X387200000Y-165670000D03*
D11*
X387430000Y-327230000D03*
X386440000Y-276730000D03*
X326430000Y-322730000D03*
X386430000Y-282730000D03*
X362430000Y-282730000D03*
X362430000Y-306730000D03*
D37*
X372160000Y-312810000D03*
X377240000Y-312810000D03*
X372160000Y-276220000D03*
X377240000Y-276220000D03*
D20*
X332430000Y-314230000D03*
D19*
X332430000Y-306730000D03*
D25*
X342427460Y-316070000D03*
D38*
X342427460Y-326230000D03*
D17*
X387430000Y-322230000D03*
D18*
X384890000Y-322230000D03*
X387430000Y-319690000D03*
X384890000Y-319690000D03*
X387430000Y-317150000D03*
X384890000Y-317150000D03*
X387430000Y-314610000D03*
X384890000Y-314610000D03*
D17*
X380430000Y-322730000D03*
D18*
X377890000Y-322730000D03*
X380430000Y-320190000D03*
X377890000Y-320190000D03*
X380430000Y-317650000D03*
X377890000Y-317650000D03*
D13*
X373430000Y-322730000D03*
D14*
X373430000Y-320190000D03*
X373430000Y-317650000D03*
D23*
X334930000Y-326210000D03*
D24*
X334930000Y-322250000D03*
D23*
X353930000Y-295750000D03*
D24*
X353930000Y-299710000D03*
D23*
X343430000Y-295750000D03*
D24*
X343430000Y-299710000D03*
D39*
X345930000Y-313190000D03*
X345930000Y-318270000D03*
X345930000Y-315730000D03*
D25*
X367430000Y-321230000D03*
X359810000Y-321230000D03*
X356930000Y-317730000D03*
X349310000Y-317730000D03*
X356930000Y-311730000D03*
X349310000Y-311730000D03*
D28*
X367470000Y-317730000D03*
X367470000Y-315190000D03*
X359850000Y-317730000D03*
X359850000Y-315190000D03*
D11*
X386430000Y-306730000D03*
X436770000Y-293900000D03*
D12*
X407270000Y-322400000D03*
D17*
X395770000Y-304400000D03*
D18*
X398310000Y-304400000D03*
X395770000Y-306940000D03*
X398310000Y-306940000D03*
X395770000Y-309480000D03*
X398310000Y-309480000D03*
X395770000Y-312020000D03*
X398310000Y-312020000D03*
X395770000Y-314560000D03*
X398310000Y-314560000D03*
D15*
X398470000Y-321300000D03*
D16*
X395930000Y-321300000D03*
D13*
X404270000Y-299400000D03*
D14*
X404270000Y-301940000D03*
X404270000Y-304480000D03*
X404270000Y-307020000D03*
X404270000Y-309560000D03*
X404270000Y-312100000D03*
X404270000Y-314640000D03*
D12*
X433270000Y-322400000D03*
D11*
X396770000Y-293900000D03*
D12*
X328580000Y-126170000D03*
M02*
