M48
;DRILL file {KiCad 4.0.1-stable} date 2016/11/10 21:26:42
;FORMAT={3:3/ absolute / metric / suppress trailing zeros}
FMAT,2
METRIC,LZ
T1C0.300
T2C0.400
T3C0.510
T4C0.762
T5C0.800
T6C1.000
T7C1.001
T8C1.016
T9C1.100
T10C1.270
T11C1.700
T12C2.300
%
G90
G05
M71
T1
X18445Y-18775
X186355Y-26903
X18699Y-18394
X19842Y-26903
X23144Y-18214
X2315Y-1875
X24248Y-26894
X24252Y-26744
X24475Y-27524
X24581Y-2525
X24586Y-2608
X24654Y-20064
X24819Y-20049
X24827Y-14901
X24899Y-27726
X24966Y-20042
X25134Y-28139
X25242Y-3045
X25247Y-29953
X25346Y-27295
X25452Y-29926
X25496Y-3045
X25592Y-27737
X25753Y-26897
X25816Y-26744
X25995Y-19975
X25995Y-22339
X2603Y-26562
X26129Y-19964
X26134Y-22305
X26146Y-26597
X26227Y-26368
X26233Y-22278
X26242Y-19975
X26397Y-26289
X26492Y-26166
X26576Y-25264
X2669Y-26608
X26791Y-25607
X26865Y-28193
X26878Y-28374
X26942Y-25253
X2695Y-24233
X27052Y-24135
X27151Y-24077
X27163Y-29089
X27424Y-28924
X27559Y-28642
X27612Y-24192
X2782Y-2915
X27973Y-25809
X28137Y-24335
X28137Y-25677
X28235Y-29318
X28258Y-29972
X28326Y-28845
X28472Y-2528
X28558Y-25783
X28605Y-28847
X28709Y-17761
X28741Y-29703
X29384Y-21196
X29449Y-21038
X29621Y-22934
X2973Y-1477
X29784Y-22916
X29959Y-17649
X29968Y-17987
X29978Y-22646
X3002Y-21434
X30063Y-20226
X31035Y-22228
X31415Y-23548
X31527Y-23406
X31765Y-20946
X32077Y-21301
X32169Y-20657
X32359Y-25277
X32459Y-23659
X32951Y-17812
X33097Y-24077
X33351Y-2451
X34297Y-20126
X34734Y-20131
T2
X33243Y-30673
X33793Y-30723
X34043Y-30573
X34393Y-30623
X34393Y-30923
X35193Y-30623
X35943Y-30273
X36593Y-30273
X37343Y-30373
X37553Y-31693
X37558Y-13307
X37574Y-12467
X37593Y-30623
X38138Y-11877
X38138Y-12147
X38208Y-13307
X38338Y-11977
X38578Y-11947
X38578Y-12907
X38618Y-12387
X38678Y-12177
X38828Y-12627
X38868Y-12367
X38888Y-12047
X38918Y-12757
T3
X31842Y-2225
X32096Y-21996
X3235Y-2225
T4
X17426Y-16088
X17426Y-17612
X1768Y-16088
X1768Y-17612
X17826Y-26488
X17826Y-28012
X17934Y-16088
X17934Y-17612
X1808Y-26488
X1808Y-28012
X18188Y-16088
X18188Y-17612
X18334Y-26488
X18334Y-28012
X18442Y-16088
X18442Y-17612
X18588Y-26488
X18588Y-28012
X18696Y-16088
X18696Y-17612
X18842Y-26488
X18842Y-28012
X1895Y-16088
X1895Y-17612
X19096Y-26488
X19096Y-28012
X19204Y-16088
X19204Y-17612
X1935Y-26488
X1935Y-28012
X19458Y-16088
X19458Y-17612
X19604Y-26488
X19604Y-28012
X19712Y-16088
X19712Y-17612
X19858Y-26488
X19858Y-28012
X19966Y-16088
X19966Y-17612
X20112Y-26488
X20112Y-28012
X2022Y-16088
X2022Y-17612
X20366Y-26488
X20366Y-28012
X2062Y-26488
X2062Y-28012
X2135Y-21796
X2135Y-2205
X2135Y-22304
X21723Y-2037
X21723Y-2373
X2185Y-2015
X2185Y-2395
X21977Y-1993
X21977Y-2417
X2293Y-18877
X2293Y-25223
X2315Y-1875
X2315Y-2535
X2337Y-18623
X2337Y-25477
X23605Y-18946
X23605Y-192
X23605Y-19454
X23605Y-19708
X23605Y-19962
X23605Y-20216
X23605Y-2047
X24996Y-1815
X24996Y-2595
X2525Y-1815
X2525Y-2595
X25504Y-1815
X25504Y-2595
X26505Y-18946
X26505Y-192
X26505Y-19454
X26505Y-19708
X26505Y-19962
X26505Y-20216
X26505Y-2047
X2713Y-18623
X2713Y-25477
X2735Y-1875
X2735Y-2535
X2757Y-18877
X2757Y-25223
X28218Y-25026
X28218Y-2528
X28218Y-27058
X28218Y-27312
X28218Y-27566
X28218Y-2782
X28218Y-28074
X28218Y-28328
X28472Y-25026
X28472Y-2528
X28472Y-27058
X28472Y-27312
X28472Y-27566
X28472Y-2782
X28472Y-28074
X28472Y-28328
X28523Y-1993
X28523Y-2417
X2865Y-2015
X2865Y-2395
X28726Y-25026
X28726Y-2528
X28726Y-28074
X28726Y-28328
X28777Y-2037
X28777Y-2373
X2898Y-25026
X2898Y-2528
X2898Y-28074
X2898Y-28328
X2915Y-21796
X2915Y-2205
X2915Y-22304
X29234Y-25026
X29234Y-2528
X29234Y-28074
X29234Y-28328
X29405Y-18946
X29405Y-192
X29405Y-19454
X29405Y-19708
X29405Y-19962
X29405Y-20216
X29405Y-2047
X29488Y-25026
X29488Y-2528
X29488Y-28074
X29488Y-28328
X29742Y-25026
X29742Y-2528
X29742Y-28074
X29742Y-28328
X29996Y-25026
X29996Y-2528
X29996Y-28074
X29996Y-28328
X3025Y-25026
X3025Y-2528
X3025Y-28074
X3025Y-28328
X30504Y-25026
X30504Y-2528
X30504Y-28074
X30504Y-28328
X30758Y-25026
X30758Y-2528
X30758Y-28074
X30758Y-28328
X31012Y-25026
X31012Y-2528
X31012Y-28074
X31012Y-28328
X31266Y-25026
X31266Y-2528
X31266Y-28074
X31266Y-28328
X3152Y-25026
X3152Y-2528
X3152Y-28074
X3152Y-28328
X31774Y-25026
X31774Y-2528
X31774Y-28074
X31774Y-28328
X32028Y-25026
X32028Y-2528
X32028Y-28074
X32028Y-28328
X32282Y-28074
X32282Y-28328
X32536Y-25026
X32536Y-2528
X3279Y-25026
X3279Y-2528
X3279Y-28074
X3279Y-28328
X33044Y-25026
X33044Y-2528
X33044Y-28074
X33044Y-28328
X33298Y-25026
X33298Y-2528
X33298Y-28074
X33298Y-28328
X33658Y-12917
X33658Y-13171
X34858Y-12917
X34858Y-13171
X35985Y-31519
X35985Y-31773
X36058Y-12917
X36058Y-13171
X36747Y-31519
X36747Y-31773
X37258Y-12917
X37258Y-13171
X37704Y-08117
X37704Y-09317
X37704Y-10517
X37704Y-11717
X37704Y-13617
X37704Y-14817
X37704Y-16017
X37704Y-17217
X37958Y-08117
X37958Y-09317
X37958Y-10517
X37958Y-11717
X37958Y-13617
X37958Y-14817
X37958Y-16017
X37958Y-17217
X39158Y-12917
X39158Y-13171
X40358Y-12917
X40358Y-13171
X41558Y-12917
X41558Y-13171
X42758Y-12917
X42758Y-13171
T5
X2205Y-2245
X2245Y-2025
X2255Y-2245
X2255Y-2335
X2295Y-2025
X2305Y-2335
X2345Y-2455
X2395Y-2455
X2405Y-1845
X2455Y-1845
X2515Y-2495
X2515Y-2545
X2545Y-1875
X2545Y-1925
X2635Y-2505
X2685Y-2505
X2735Y-1935
X2735Y-1985
X2755Y-2395
X2805Y-2395
X2815Y-2265
X282875Y-20434
X282875Y-20934
X2865Y-2265
X3145Y-189
X3145Y-1915
X3155Y-1985
X3175Y-1985
X3215Y-1895
X3215Y-1985
X3235Y-1895
X3265Y-1985
X33243Y-30673
X33243Y-31423
T6
X34593Y-31319
X34593Y-31573
X34593Y-31827
T7
X20985Y-297605
X20985Y-307765
X221001Y-2285
X224001Y-2065
X226001Y-2375
X226002Y-2285
X229002Y-2065
X231002Y-2375
X237001Y-2495
X241001Y-1885
X242002Y-2495
X246002Y-1885
X2505Y-187001
X2505Y-192002
X2555Y-247998
X2555Y-252999
X2575Y-2865
X2575Y-2955
X26004Y-2955
X2667Y-2955
X26766Y-2865
X267998Y-2475
X2695Y-193001
X2695Y-198002
X272999Y-2475
X2743Y-2955
X276998Y-2355
X2785Y-202001
X2785Y-207002
X280998Y-2225
X281999Y-2355
X285999Y-2225
X2875Y-30634
X2875Y-3165
X305735Y-297605
X305735Y-307765
X32134Y-1945
X3315Y-1945
X33658Y-12163
X33658Y-12417
X342427Y-32623
X34258Y-12155
X34258Y-12917
X34858Y-12163
X34858Y-12417
X34931Y-31173
X34931Y-31773
X35458Y-12405
X35458Y-13167
X35693Y-31173
X35693Y-31773
X35981Y-32123
X36058Y-12163
X36058Y-12417
X36708Y-12155
X36708Y-12917
X36743Y-32123
X37258Y-12163
X37258Y-12417
X37708Y-15427
X37718Y-09917
X37958Y-11067
X37958Y-16567
X37968Y-08697
X37968Y-14187
X38458Y-08117
X38458Y-09317
X38458Y-10517
X38458Y-11717
X38458Y-13617
X38458Y-14817
X38458Y-16017
X38458Y-17217
X3847Y-15427
X38712Y-08117
X38712Y-09317
X38712Y-10517
X38712Y-11717
X38712Y-13617
X38712Y-14817
X38712Y-16017
X38712Y-17217
X3872Y-11067
X3872Y-16567
X3873Y-08697
X3873Y-14187
X38734Y-09917
X39158Y-12163
X39158Y-12417
X39758Y-12155
X39758Y-12917
X40358Y-12163
X40358Y-12417
X40958Y-12155
X40958Y-12917
X41558Y-12163
X41558Y-12417
X42158Y-12405
X42158Y-13167
X42758Y-12163
X42758Y-12417
T8
X16921Y-21823
X16921Y-22077
X16921Y-22331
X16921Y-22585
X17937Y-19664
X18191Y-19664
X18445Y-19664
X18699Y-19664
X18953Y-19664
X19207Y-19664
X19461Y-19664
X19715Y-19664
X213025Y-26903
X213025Y-27157
X213025Y-27411
X213025Y-27665
X215565Y-26903
X215565Y-27157
X215565Y-27411
X215565Y-27665
X2485Y-1595
X24988Y-3045
X25104Y-1595
X25242Y-3045
X25358Y-1595
X25496Y-3045
X25612Y-1595
X2575Y-3045
X272Y-269
X272Y-27154
X272Y-27408
X272Y-27662
X272Y-27916
X27454Y-269
X27454Y-27154
X27454Y-27408
X27454Y-27662
X27454Y-27916
X3385Y-2175
X3385Y-22004
X3385Y-22258
X3385Y-22512
X37343Y-31765
X37343Y-32019
X37343Y-32273
X37789Y-31765
X37789Y-32019
X37789Y-32273
X38043Y-31765
X38043Y-32019
X38043Y-32273
X38104Y-12417
X38104Y-12671
X38104Y-12925
X38358Y-12417
X38358Y-12671
X38358Y-12925
X38489Y-31461
X38489Y-31715
X38489Y-31969
X38489Y-32223
X38743Y-31461
X38743Y-31715
X38743Y-31969
X38743Y-32223
X39577Y-3044
X39577Y-3044
X39577Y-30694
X39577Y-30694
X39577Y-30948
X39577Y-30948
X39577Y-31202
X39577Y-31202
X39577Y-31456
X39577Y-31456
X39593Y-3213
X39593Y-3213
X39831Y-3044
X39831Y-3044
X39831Y-30694
X39831Y-30694
X39831Y-30948
X39831Y-30948
X39831Y-31202
X39831Y-31202
X39831Y-31456
X39831Y-31456
X39847Y-3213
X39847Y-3213
X40427Y-2994
X40427Y-2994
X40427Y-30194
X40427Y-30194
X40427Y-30448
X40427Y-30448
X40427Y-30702
X40427Y-30702
X40427Y-30956
X40427Y-30956
X40427Y-3121
X40427Y-3121
X40427Y-31464
X40427Y-31464
T9
X19827Y-30263
X19827Y-30713
X20477Y-30263
X20477Y-30713
X292Y-306
X292Y-3105
X2985Y-306
X2985Y-3105
X31003Y-296915
X31003Y-301415
X31653Y-296915
X31653Y-301415
T10
X342427Y-31607
T11
X23552Y-2215
X23948Y-2215
X25052Y-2215
X25448Y-2215
X26552Y-2215
X26948Y-2215
X3055Y-18852
X3055Y-19248
X33493Y-32225
X33493Y-32621
X34343Y-29575
X34343Y-29971
X35393Y-29575
X35393Y-29971
T12
X22125Y-16525
X22125Y-21375
X22575Y-16525
X22575Y-21375
X25025Y-16525
X25025Y-21375
X25475Y-16525
X25475Y-21375
X27925Y-16525
X27925Y-21375
X28375Y-16525
X28375Y-21375
X37216Y-27622
X37216Y-31281
X37724Y-27622
X37724Y-31281
T0
M30
